<?xml version="1.0" encoding="UTF-8"?>
<svg version="1.1" xmlns="http://www.w3.org/2000/svg" width="512" height="512">
<path d="M0 0 C1.0096582 0.20931152 2.01931641 0.41862305 3.05957031 0.63427734 C58.9265221 12.56956656 111.38918712 41.64371509 147 87 C147.86958999 88.06893342 148.74074968 89.13659133 149.61328125 90.203125 C190.44022831 140.47913529 208.50582269 206.09304289 202.17919922 270.28686523 C200.68434507 283.38525101 198.21011165 296.21836462 195 309 C194.71817871 310.13308594 194.71817871 310.13308594 194.43066406 311.2890625 C187.81927314 337.21608573 175.74024455 363.38293926 160 385 C158.66501867 386.91551918 157.33162295 388.83214463 156 390.75 C155.0014007 392.16765436 154.00196594 393.5847231 153 395 C153.66 395.66 154.32 396.32 155 397 C155.19900705 400.09324202 155.27261582 403.09699774 155.25878906 406.19140625 C155.26404602 407.62080032 155.26404602 407.62080032 155.26940918 409.07907104 C155.27823753 412.24028735 155.27237342 415.40128127 155.265625 418.5625 C155.26697133 420.75203494 155.2689116 422.9415696 155.27142334 425.13110352 C155.2743761 429.72447551 155.27007205 434.31776983 155.26074219 438.91113281 C155.24934761 444.80965863 155.25590626 450.70800247 155.26788712 456.60652161 C155.2751016 461.12912374 155.27281968 465.65168247 155.26763153 470.17428589 C155.26629389 472.3496808 155.26794671 474.52507961 155.27259064 476.70046997 C155.27764909 479.73661798 155.26995518 482.77246803 155.25878906 485.80859375 C155.26283752 486.71463348 155.26688599 487.62067322 155.27105713 488.5541687 C155.22852747 494.77147253 155.22852747 494.77147253 153 497 C150.1492552 497.20395718 147.39525722 497.28315919 144.54296875 497.2746582 C143.66806793 497.27976913 142.79316711 497.28488007 141.89175415 497.29014587 C138.99026716 497.30408358 136.08901655 497.30308213 133.1875 497.30078125 C131.17732657 497.30466558 129.16715396 497.30899969 127.15698242 497.31376648 C122.94023988 497.32123746 118.72358105 497.32093084 114.50683594 497.31567383 C109.09251358 497.30987473 103.67853281 497.32681663 98.26426697 497.3500185 C94.11224348 497.3647206 89.96030296 497.36563242 85.80825806 497.36250877 C83.81148603 497.36302365 81.81470956 497.36829245 79.81796265 497.37832069 C77.03075686 497.39060119 74.24422553 497.38394447 71.45703125 497.37231445 C70.62579742 497.37995819 69.7945636 497.38760193 68.93814087 497.39547729 C66.64379883 497.3742218 66.64379883 497.3742218 63 497 C61 494 61 494 61.3125 490.875 C62 488 62 488 63 487 C65.52541002 486.90495749 68.02337126 486.87442842 70.54907227 486.88647461 C71.33925751 486.88632858 72.12944275 486.88618256 72.943573 486.8860321 C75.56787822 486.88673143 78.19211336 486.89452473 80.81640625 486.90234375 C82.63101665 486.90420786 84.44562756 486.9056318 86.26023865 486.90663147 C91.0459023 486.91045721 95.8315358 486.92028796 100.6171875 486.93133545 C106.35403571 486.9433427 112.09089399 486.94795154 117.82775116 486.95378876 C126.5518551 486.96349969 135.27589284 486.98265585 144 487 C143.67 460.6 143.34 434.2 143 407 C139.04 411.29 135.08 415.58 131 420 C125.04611209 426.22868274 118.72708459 431.62404131 112 437 C111.24332031 437.63550781 110.48664063 438.27101563 109.70703125 438.92578125 C78.47094657 464.89312875 39.70307071 481.50254914 0 489 C-0.82000488 489.16371094 -1.64000977 489.32742188 -2.48486328 489.49609375 C-29.97949767 494.78625596 -62.58874847 494.70521264 -90 489 C-91.0096582 488.79068848 -92.01931641 488.58137695 -93.05957031 488.36572266 C-146.01580569 477.05227231 -198.65066475 449.93666906 -233 407 C-233.33 433.4 -233.66 459.8 -234 487 C-228.17601562 486.96519531 -222.35203125 486.93039062 -216.3515625 486.89453125 C-212.66926085 486.87920865 -208.98699833 486.86476725 -205.3046875 486.85351562 C-199.45564648 486.83555892 -193.60674588 486.81428145 -187.7578125 486.77368164 C-183.044025 486.74116487 -178.33038801 486.72316325 -173.61649704 486.71536827 C-171.81508386 486.7098109 -170.01367923 486.69895918 -168.21232986 486.68280983 C-165.69556916 486.66113732 -163.17943615 486.65802875 -160.66259766 486.65942383 C-159.53726875 486.64324509 -159.53726875 486.64324509 -158.38920593 486.6267395 C-156.31558228 486.63923645 -156.31558228 486.63923645 -153 487 C-151 490 -151 490 -151.3125 493.125 C-152 496 -152 496 -153 497 C-155.78914774 497.10584361 -158.55366478 497.14677813 -161.34350586 497.14526367 C-162.21826065 497.14862228 -163.09301544 497.1519809 -163.99427795 497.15544128 C-166.90114746 497.16498128 -169.80795955 497.16689591 -172.71484375 497.16796875 C-174.72644576 497.17117918 -176.73804754 497.17454309 -178.74964905 497.17805481 C-182.97234641 497.1840537 -187.19502328 497.18589393 -191.41772461 497.18530273 C-196.83984397 497.18520106 -202.26183253 497.19885521 -207.68392086 497.21607494 C-211.84022124 497.22717045 -215.99648975 497.2292227 -220.15280342 497.22869301 C-222.15236423 497.22987676 -224.15192577 497.23432047 -226.15147209 497.24202538 C-228.94344224 497.25177614 -231.73512525 497.2489668 -234.52709961 497.24291992 C-235.35990448 497.24853943 -236.19270935 497.25415894 -237.05075073 497.25994873 C-242.77168466 497.22831534 -242.77168466 497.22831534 -245 495 C-245.19900705 491.90675798 -245.27261582 488.90300226 -245.25878906 485.80859375 C-245.2622937 484.85566437 -245.26579834 483.90273499 -245.26940918 482.92092896 C-245.27823753 479.75971265 -245.27237342 476.59871873 -245.265625 473.4375 C-245.26697133 471.24796506 -245.2689116 469.0584304 -245.27142334 466.86889648 C-245.2743761 462.27552449 -245.27007205 457.68223017 -245.26074219 453.08886719 C-245.24934761 447.19034137 -245.25590626 441.29199753 -245.26788712 435.39347839 C-245.2751016 430.87087626 -245.27281968 426.34831753 -245.26763153 421.82571411 C-245.26629389 419.6503192 -245.26794671 417.47492039 -245.27259064 415.29953003 C-245.27764909 412.26338202 -245.26995518 409.22753197 -245.25878906 406.19140625 C-245.26283752 405.28536652 -245.26688599 404.37932678 -245.27105713 403.4458313 C-245.22852747 397.22852747 -245.22852747 397.22852747 -243 395 C-244.01707031 393.56333984 -244.01707031 393.56333984 -245.0546875 392.09765625 C-283.99310144 336.61747045 -301.18729801 270.37048784 -290 203 C-288.6123593 195.26430187 -286.90789448 187.62277901 -285 180 C-284.81743652 179.25524414 -284.63487305 178.51048828 -284.44677734 177.74316406 C-277.98002279 151.93585733 -265.74825 125.4457876 -250 104 C-249.28328125 103.01257813 -248.5665625 102.02515625 -247.828125 101.0078125 C-239.52221925 89.75187816 -230.58629569 79.1720455 -221 69 C-220.31035156 68.2678125 -219.62070313 67.535625 -218.91015625 66.78125 C-213.66014868 61.37019926 -207.88314663 56.70152453 -202 52 C-201.24332031 51.36449219 -200.48664063 50.72898438 -199.70703125 50.07421875 C-168.21326587 23.89265476 -129.77653549 8.24604526 -90 0 C-89.1244043 -0.18224121 -88.24880859 -0.36448242 -87.34667969 -0.55224609 C-59.98856518 -5.89936882 -27.27408821 -5.67666429 0 0 Z " fill="#D5EAFD" transform="translate(301,9)"/>
<path d="M0 0 C2.37215689 0.80884861 4.75507014 1.57700216 7.14160156 2.34228516 C45.25191079 14.82839602 81.51343604 36.20711962 112.15722656 61.98681641 C114.16520895 63.66134324 116.21514744 65.24315321 118.32128906 66.79150391 C116.75710395 71.18365284 113.31019518 73.53015239 109.75878906 76.29150391 C109.09186035 76.81558838 108.42493164 77.33967285 107.73779297 77.87963867 C93.589979 88.89098656 78.69311791 98.58235123 63.32128906 107.79150391 C62.37165283 108.36449219 61.4220166 108.93748047 60.44360352 109.52783203 C53.51119056 113.65215753 46.46328913 117.30166922 39.13378906 120.66650391 C38.02390625 121.17753662 36.91402344 121.68856934 35.77050781 122.21508789 C21.05404404 128.86843272 5.84185944 134.33222991 -9.67871094 138.79150391 C-10.55712646 139.04794678 -11.43554199 139.30438965 -12.34057617 139.56860352 C-18.91871681 141.43509598 -25.50066541 142.78478035 -32.24121094 143.91650391 C-33.20478516 144.08537109 -34.16835938 144.25423828 -35.16113281 144.42822266 C-103.49968141 156.13286955 -171.99493898 129.68472735 -227.31518555 90.90429688 C-237.07625744 83.95462204 -246.69740667 76.72847047 -255.67871094 68.79150391 C-254.37291142 64.87410536 -251.91156488 63.33007485 -248.74121094 60.91650391 C-247.8083728 60.19793213 -247.8083728 60.19793213 -246.85668945 59.46484375 C-244.80581597 57.89556314 -242.7440453 56.34169494 -240.67871094 54.79150391 C-239.9900293 54.27201172 -239.30134766 53.75251953 -238.59179688 53.21728516 C-200.10766057 24.34081419 -156.87414941 2.69527071 -109.67871094 -7.20849609 C-108.85483887 -7.38928711 -108.0309668 -7.57007813 -107.18212891 -7.75634766 C-72.60621298 -15.07762137 -33.1859 -11.34938152 0 0 Z " fill="#FDFDFD" transform="translate(324.6787109375,251.20849609375)"/>
<path d="M0 0 C1.06283203 0.01160156 2.12566406 0.02320313 3.22070312 0.03515625 C22.97360125 0.44793962 38.57060789 8.28612871 52.125 22.375 C53.01058594 23.23158203 53.01058594 23.23158203 53.9140625 24.10546875 C64.75954712 35.3859327 70.19608565 52.27732525 70.5 67.625 C69.91089967 83.9173059 65.49530589 98.6049539 55.125 111.375 C54.48046875 112.20515625 53.8359375 113.0353125 53.171875 113.890625 C45.11268177 123.6213546 34.17024994 130.5833315 22.125 134.375 C21.26261719 134.67148437 20.40023437 134.96796875 19.51171875 135.2734375 C1.39105599 140.7372058 -16.69050016 137.37542265 -33.0390625 128.60546875 C-49.26338129 119.45174815 -60.65930105 104.27942084 -65.75 86.4375 C-66.14742693 84.75514062 -66.52577914 83.06802275 -66.875 81.375 C-67.101875 80.281875 -67.32875 79.18875 -67.5625 78.0625 C-69.18456017 58.92219004 -65.43122828 41.8624827 -53.671875 26.49609375 C-51.49797418 24.00674928 -49.24188879 21.68046434 -46.875 19.375 C-46.21242187 18.68019531 -45.54984375 17.98539062 -44.8671875 17.26953125 C-33.04464472 5.64927532 -16.32465346 -0.22831683 0 0 Z " fill="#4A8FF1" transform="translate(254.875,250.625)"/>
<path d="M0 0 C0.89301819 -0.00385712 1.78603638 -0.00771423 2.70611572 -0.01168823 C19.09582188 -0.04650549 35.13225487 1.0307172 51.125 4.8125 C52.74245117 5.19172607 52.74245117 5.19172607 54.39257812 5.57861328 C74.1612217 10.42447992 93.49927479 17.43390846 111.8125 26.3125 C112.47427246 26.62896484 113.13604492 26.94542969 113.81787109 27.27148438 C143.86278685 41.69070411 172.07767428 59.9019847 196.8125 82.3125 C197.61816406 82.95960938 198.42382812 83.60671875 199.25390625 84.2734375 C200.8125 86.3125 200.8125 86.3125 200.97265625 89.1796875 C199.36306575 93.52612379 196.79295697 95.56520259 193.25 98.4375 C192.23897217 99.28163452 192.23897217 99.28163452 191.20751953 100.14282227 C189.09388956 101.88983209 186.9592817 103.6064385 184.8125 105.3125 C183.8531958 106.07554443 183.8531958 106.07554443 182.87451172 106.85400391 C150.4751271 132.34735905 114.01040823 152.50368235 74.8125 165.3125 C73.91950195 165.60737305 73.02650391 165.90224609 72.10644531 166.20605469 C10.85960748 186.20737076 -53.65183198 178.19280314 -111.1875 150.3125 C-112.80986178 149.54680283 -114.43225796 148.78117858 -116.0546875 148.015625 C-144.66718875 134.30712069 -172.09137027 116.15434553 -195.1875 94.3125 C-195.95835937 93.67183594 -196.72921875 93.03117187 -197.5234375 92.37109375 C-199.1875 90.3125 -199.1875 90.3125 -199.26953125 87.8984375 C-197.82914754 84.45607642 -195.61666332 82.36011538 -192.875 79.9375 C-192.30958496 79.42783691 -191.74416992 78.91817383 -191.16162109 78.39306641 C-174.11620465 63.35936092 -154.87139971 50.61292635 -135.1875 39.3125 C-134.3845752 38.85085449 -133.58165039 38.38920898 -132.75439453 37.91357422 C-104.07518963 21.55244678 -74.39382229 10.44192128 -42.1875 3.3125 C-41.32205566 3.1160791 -40.45661133 2.9196582 -39.56494141 2.71728516 C-26.52353247 -0.10488762 -13.27961662 0.03571422 0 0 Z M-38.06640625 12.87255859 C-40.16363216 13.30754951 -42.26515291 13.68254392 -44.375 14.05078125 C-97.09927409 23.87752768 -145.28637886 53.83149376 -186.1875 87.3125 C-184.62331488 91.70464894 -181.17640612 94.05114849 -177.625 96.8125 C-176.95807129 97.33658447 -176.29114258 97.86066895 -175.60400391 98.40063477 C-140.85419379 125.4466681 -101.69789705 147.35545574 -59.1875 159.3125 C-57.93936523 159.67166504 -57.93936523 159.67166504 -56.66601562 160.03808594 C-25.70951445 168.77717652 7.21115733 169.56392688 38.8125 164.3125 C39.53646973 164.19503418 40.26043945 164.07756836 41.00634766 163.95654297 C50.13198577 162.43597217 58.89245118 159.97374079 67.64648438 157.03808594 C69.11704821 156.54546694 70.58980422 156.05935366 72.06445312 155.57910156 C114.4378831 141.75703813 154.37393806 118.86285706 187.8125 89.3125 C186.50670048 85.39510145 184.04535395 83.85107094 180.875 81.4375 C180.25310791 80.95845215 179.63121582 80.4794043 178.99047852 79.98583984 C176.93960503 78.41655924 174.87783436 76.86269103 172.8125 75.3125 C172.12381836 74.79300781 171.43513672 74.27351563 170.72558594 73.73828125 C131.29074113 44.14844865 84.99539109 19.88700797 35.8125 12.3125 C34.83498779 12.13952393 33.85747559 11.96654785 32.8503418 11.78833008 C22.47315508 10.08065338 12.24456043 9.95749885 1.75 10 C0.8420871 10.00149048 -0.06582581 10.00298096 -1.00125122 10.0045166 C-13.50894105 10.04146653 -25.77521542 10.32284855 -38.06640625 12.87255859 Z " fill="#060606" transform="translate(255.1875,230.6875)"/>
<path d="M0 0 C1.06283203 0.01160156 2.12566406 0.02320313 3.22070312 0.03515625 C22.97360125 0.44793962 38.57060789 8.28612871 52.125 22.375 C53.01058594 23.23158203 53.01058594 23.23158203 53.9140625 24.10546875 C64.75954712 35.3859327 70.19608565 52.27732525 70.5 67.625 C69.91089967 83.9173059 65.49530589 98.6049539 55.125 111.375 C54.48046875 112.20515625 53.8359375 113.0353125 53.171875 113.890625 C45.11268177 123.6213546 34.17024994 130.5833315 22.125 134.375 C21.26261719 134.67148437 20.40023437 134.96796875 19.51171875 135.2734375 C1.39105599 140.7372058 -16.69050016 137.37542265 -33.0390625 128.60546875 C-49.26338129 119.45174815 -60.65930105 104.27942084 -65.75 86.4375 C-66.14742693 84.75514062 -66.52577914 83.06802275 -66.875 81.375 C-67.101875 80.281875 -67.32875 79.18875 -67.5625 78.0625 C-69.18456017 58.92219004 -65.43122828 41.8624827 -53.671875 26.49609375 C-51.49797418 24.00674928 -49.24188879 21.68046434 -46.875 19.375 C-46.21242187 18.68019531 -45.54984375 17.98539062 -44.8671875 17.26953125 C-33.04464472 5.64927532 -16.32465346 -0.22831683 0 0 Z M-22.875 14.375 C-23.72707031 14.79910156 -24.57914063 15.22320312 -25.45703125 15.66015625 C-40.25948486 23.82310686 -50.52930934 36.37283318 -55.84765625 52.28515625 C-57.94995262 59.70675133 -58.38121551 66.69580629 -57.875 74.375 C-57.81699219 75.26703125 -57.75898438 76.1590625 -57.69921875 77.078125 C-55.93674961 91.26281636 -46.89407269 105.46105942 -36.1875 114.5625 C-22.98126753 124.56178914 -7.44029026 129.2059005 9.125 127.375 C19.53697079 125.42913238 28.6921425 121.89006249 37.125 115.375 C37.92421875 114.76785156 38.7234375 114.16070312 39.546875 113.53515625 C50.67237174 104.40702218 58.64153334 89.73578137 60.125 75.375 C61.16626972 59.58860735 57.64383091 45.23184194 47.9140625 32.4765625 C45.73629678 30.00149088 43.49143949 27.66921422 41.125 25.375 C40.28001953 24.51648438 40.28001953 24.51648438 39.41796875 23.640625 C29.02242346 13.82682555 14.70377728 9.79082644 0.75 9.9375 C-0.26151123 9.94507324 -1.27302246 9.95264648 -2.31518555 9.96044922 C-9.75629228 10.12459568 -16.15540192 10.98882891 -22.875 14.375 Z " fill="#050607" transform="translate(254.875,250.625)"/>
<path d="M0 0 C7.91921527 4.48001321 11.91658096 11.09349287 14.734375 19.546875 C15.61171302 28.99623693 14.26577459 37.15737487 8.484375 44.859375 C1.96903837 51.2266358 -5.30365864 54.79151364 -14.515625 54.984375 C-21.16776589 54.88565601 -25.73245256 53.12838437 -31.265625 49.546875 C-32.19375 48.94875 -33.121875 48.350625 -34.078125 47.734375 C-40.2675788 41.5449212 -43.29959999 34.43601325 -43.640625 25.734375 C-43.45948601 17.1142899 -40.31040807 10.67208174 -34.4375 4.41015625 C-23.6590356 -4.83683569 -12.61892745 -5.81909089 0 0 Z " fill="#030406" transform="translate(270.265625,293.453125)"/>
<path d="M0 0 C2.4375 0.75 2.4375 0.75 4.4375 2.75 C5.56158898 7.49124325 5.57411411 12.20466957 5.55102539 17.05029297 C5.55117142 17.86071548 5.55131744 18.671138 5.5514679 19.50611877 C5.55077471 22.1681695 5.54301023 24.83014909 5.53515625 27.4921875 C5.53328996 29.34449221 5.53186705 31.19679741 5.53086853 33.04910278 C5.52705997 37.9119606 5.51724392 42.77478831 5.50616455 47.63763428 C5.49591466 52.60477288 5.49136325 57.57191636 5.48632812 62.5390625 C5.47562012 72.27605486 5.45856371 82.01302492 5.4375 91.75 C6.95299942 91.74000725 6.95299942 91.74000725 8.49911499 91.72981262 C18.00508693 91.66908533 27.51101968 91.6240678 37.01714134 91.59456348 C41.90473875 91.57888525 46.79217999 91.55760781 51.6796875 91.52368164 C56.393475 91.49116487 61.10711199 91.47316325 65.82100296 91.46536827 C67.62241614 91.4598109 69.42382077 91.44895918 71.22517014 91.43280983 C73.74193084 91.41113732 76.25806385 91.40802875 78.77490234 91.40942383 C79.52512161 91.398638 80.27534088 91.38785217 81.04829407 91.3767395 C83.12191772 91.38923645 83.12191772 91.38923645 86.4375 91.75 C88.4375 94.75 88.4375 94.75 88.125 97.875 C87.4375 100.75 87.4375 100.75 86.4375 101.75 C83.64835226 101.85584361 80.88383522 101.89677813 78.09399414 101.89526367 C77.21923935 101.89862228 76.34448456 101.9019809 75.44322205 101.90544128 C72.53635254 101.91498128 69.62954045 101.91689591 66.72265625 101.91796875 C64.71105424 101.92117918 62.69945246 101.92454309 60.68785095 101.92805481 C56.46515359 101.9340537 52.24247672 101.93589393 48.01977539 101.93530273 C42.59765603 101.93520106 37.17566747 101.94885521 31.75357914 101.96607494 C27.59727876 101.97717045 23.44101025 101.9792227 19.28469658 101.97869301 C17.28513577 101.97987676 15.28557423 101.98432047 13.28602791 101.99202538 C10.49405776 102.00177614 7.70237475 101.9989668 4.91040039 101.99291992 C4.07759552 101.99853943 3.24479065 102.00415894 2.38674927 102.00994873 C-3.33418466 101.97831534 -3.33418466 101.97831534 -5.5625 99.75 C-5.76676491 96.65698565 -5.84561974 93.6531415 -5.8371582 90.55859375 C-5.84226913 89.60566437 -5.84738007 88.65273499 -5.85264587 87.67092896 C-5.866587 84.50972273 -5.86558186 81.34873338 -5.86328125 78.1875 C-5.86716539 75.99796466 -5.87149947 73.80843008 -5.87626648 71.61889648 C-5.88373821 67.02552856 -5.88343029 62.43223748 -5.87817383 57.83886719 C-5.87237474 51.94028245 -5.88931634 46.04201125 -5.9125185 40.14347839 C-5.92721895 35.62087146 -5.92813264 31.0983407 -5.92500877 26.57571411 C-5.92552374 24.40031309 -5.9307941 22.224908 -5.94082069 20.04953003 C-5.95309786 17.01327875 -5.94644627 13.97764692 -5.93481445 10.94140625 C-5.94245819 10.03536652 -5.95010193 9.12932678 -5.95797729 8.1958313 C-5.9367218 5.69750977 -5.9367218 5.69750977 -5.5625 1.75 C-2.5625 -0.25 -2.5625 -0.25 0 0 Z " fill="#000000" transform="translate(61.5625,404.25)"/>
<path d="M0 0 C0.04626362 12.74305624 0.08183873 25.48609262 0.10362434 38.22921562 C0.11407834 44.14584181 0.12826694 50.0624107 0.15087891 55.97900391 C0.17254975 61.68481131 0.18455644 67.39056347 0.18975449 73.09640884 C0.19346062 75.27739456 0.20069737 77.45837713 0.21146011 79.63933945 C0.22589852 82.6852455 0.22798116 85.73092091 0.22705078 88.77685547 C0.23424133 89.68603729 0.24143188 90.59521912 0.24884033 91.5319519 C0.22810432 97.77189568 0.22810432 97.77189568 -2 100 C-4.8507448 100.20395718 -7.60474278 100.28315919 -10.45703125 100.2746582 C-11.33193207 100.27976913 -12.20683289 100.28488007 -13.10824585 100.29014587 C-16.00973284 100.30408358 -18.91098345 100.30308213 -21.8125 100.30078125 C-23.82267343 100.30466558 -25.83284604 100.30899969 -27.84301758 100.31376648 C-32.05976012 100.32123746 -36.27641895 100.32093084 -40.49316406 100.31567383 C-45.90748642 100.30987473 -51.32146719 100.32681663 -56.73573303 100.3500185 C-60.88775652 100.3647206 -65.03969704 100.36563242 -69.19174194 100.36250877 C-71.18851397 100.36302365 -73.18529044 100.36829245 -75.18203735 100.37832069 C-77.96924314 100.39060119 -80.75577447 100.38394447 -83.54296875 100.37231445 C-84.37420258 100.37995819 -85.2054364 100.38760193 -86.06185913 100.39547729 C-88.35620117 100.3742218 -88.35620117 100.3742218 -92 100 C-94 97 -94 97 -93.6875 93.875 C-93 91 -93 91 -92 90 C-89.47458998 89.90495749 -86.97662874 89.87442842 -84.45092773 89.88647461 C-83.26564987 89.88625557 -83.26564987 89.88625557 -82.056427 89.8860321 C-79.43212178 89.88673143 -76.80788664 89.89452473 -74.18359375 89.90234375 C-72.36898335 89.90420786 -70.55437244 89.9056318 -68.73976135 89.90663147 C-63.9540977 89.91045721 -59.1684642 89.92028796 -54.3828125 89.93133545 C-49.50325936 89.94154837 -44.62370136 89.94612883 -39.74414062 89.95117188 C-30.16274714 89.96191018 -20.58137607 89.97898727 -11 90 C-11.00444122 88.97571396 -11.00888245 87.95142792 -11.01345825 86.89610291 C-11.05405162 77.22979037 -11.08400711 67.56349519 -11.10362434 57.89711666 C-11.11404888 52.92787554 -11.12818382 47.95870339 -11.15087891 42.98950195 C-11.17265467 38.19141019 -11.18457863 33.39338465 -11.18975449 28.59524727 C-11.19344174 26.76727824 -11.20064201 24.93931273 -11.21146011 23.11137199 C-11.22603794 20.54544191 -11.22797532 17.97978338 -11.22705078 15.41381836 C-11.23424133 14.66287399 -11.24143188 13.91192963 -11.24884033 13.13822937 C-11.23044913 8.40219082 -10.64718387 4.46094016 -9 0 C-5.27774743 -2.44885037 -3.72162199 -2.08252464 0 0 Z " fill="#000000" transform="translate(456,406)"/>
<path d="M0 0 C0.84417984 -0.00525696 1.68835968 -0.01051392 2.55812073 -0.01593018 C5.35208571 -0.02914761 8.14548222 -0.020386 10.93945312 -0.01025391 C12.87854115 -0.01227414 14.81762844 -0.01518516 16.75671387 -0.01895142 C20.82209502 -0.02337713 24.88727852 -0.01693574 28.95263672 -0.00292969 C34.16844158 0.01416231 39.38378336 0.00432245 44.59957123 -0.01364708 C48.60410055 -0.02447822 52.60851976 -0.02104165 56.61305237 -0.0132637 C58.53642328 -0.01125984 60.45980414 -0.01372747 62.38316345 -0.02070236 C65.06951449 -0.02830582 67.75511149 -0.01672835 70.44140625 0 C71.23942154 -0.00607269 72.03743683 -0.01214539 72.8596344 -0.0184021 C78.21588506 0.04351348 78.21588506 0.04351348 80.71862793 1.75228882 C82.14296551 4.0775299 82.06307289 5.71769942 81.72070312 8.38818359 C79.22051901 10.88836771 77.74213015 10.62332086 74.33149719 10.63702393 C73.20616829 10.6262381 73.20616829 10.6262381 72.05810547 10.61523438 C71.2677742 10.61552643 70.47744293 10.61581848 69.66316223 10.61611938 C67.04421099 10.61472321 64.42554232 10.59914865 61.80664062 10.58349609 C59.99346065 10.57976698 58.18027866 10.57691953 56.36709595 10.57492065 C51.58962461 10.56727617 46.81227446 10.54762071 42.03485107 10.5255127 C37.1619226 10.5050718 32.28897459 10.4959227 27.41601562 10.48583984 C17.85085815 10.46437556 8.28579071 10.43022982 -1.27929688 10.38818359 C-1.27263504 11.39629593 -1.26597321 12.40440826 -1.2591095 13.44306946 C-1.19834882 22.93401361 -1.15334854 32.4249184 -1.12386036 41.91601276 C-1.10819064 46.79573471 -1.08692857 51.67529991 -1.05297852 56.55493164 C-1.0204316 61.26223991 -1.00245371 65.96939722 -0.99466515 70.67680931 C-0.98911323 72.47460495 -0.97827193 74.27239214 -0.9621067 76.07012367 C-0.94039425 78.58428563 -0.93732732 81.09782023 -0.9387207 83.61206055 C-0.92254196 84.73199654 -0.92254196 84.73199654 -0.90603638 85.8745575 C-0.92390601 88.84562889 -0.93906494 90.8888261 -2.64042664 93.38591003 C-4.27929688 94.38818359 -4.27929688 94.38818359 -6.84179688 94.20068359 C-9.27929688 93.38818359 -9.27929688 93.38818359 -11.27929688 91.38818359 C-11.48317642 88.60316631 -11.56246779 85.91717784 -11.55395508 83.13061523 C-11.55906601 82.27682785 -11.56417694 81.42304047 -11.56944275 80.54338074 C-11.583381 77.71162979 -11.5823788 74.88012108 -11.58007812 72.04833984 C-11.58396278 70.08540251 -11.58829697 68.12246603 -11.59306335 66.15953064 C-11.60053471 62.04114052 -11.60022771 57.92283611 -11.5949707 53.80444336 C-11.58917541 48.52025247 -11.60610412 43.23641202 -11.62931538 37.95227909 C-11.64402968 33.89715006 -11.64492755 29.84210587 -11.64180565 25.78695488 C-11.64232004 23.83845768 -11.64757976 21.88995587 -11.65761757 19.94148445 C-11.66991989 17.21913857 -11.66322778 14.49748091 -11.65161133 11.77514648 C-11.65925507 10.96620941 -11.6668988 10.15727234 -11.67477417 9.32382202 C-11.64740201 6.42954576 -11.58895662 4.00389993 -10.27348328 1.38825989 C-6.99004114 -0.25837287 -3.59141476 -0.02732975 0 0 Z " fill="#070708" transform="translate(67.279296875,131.61181640625)"/>
<path d="M0 0 C1.24922997 -0.00788544 1.24922997 -0.00788544 2.5236969 -0.01593018 C5.28039228 -0.02914832 8.03651149 -0.02038497 10.79321289 -0.01025391 C12.70748506 -0.01227431 14.62175647 -0.01518547 16.536026 -0.01895142 C20.55013346 -0.02337738 24.56404078 -0.01693564 28.578125 -0.00292969 C33.72433144 0.01415079 38.87006814 0.00432993 44.01625729 -0.01364708 C47.97021524 -0.02448738 51.92406184 -0.02103723 55.87802315 -0.0132637 C57.77544777 -0.01126178 59.6728825 -0.01372069 61.57029533 -0.02070236 C64.22291715 -0.02831958 66.87477857 -0.01670847 69.52734375 0 C70.31241302 -0.00607269 71.0974823 -0.01214539 71.90634155 -0.0184021 C74.94645767 0.01708145 77.48382045 0.24952123 80.31582642 1.38925171 C82.7188319 4.56499294 82.37583695 7.93798622 82.33007812 11.75927734 C82.3381826 13.04017746 82.3381826 13.04017746 82.34645081 14.34695435 C82.35897231 17.17354851 82.3424246 19.9991309 82.32446289 22.82568359 C82.3246178 24.7871913 82.32610542 26.74869932 82.32887268 28.71020508 C82.33025821 32.82272865 82.31767291 36.93490411 82.29492188 41.04736328 C82.26653686 46.32372088 82.26927255 51.59949986 82.28201199 56.87590027 C82.28896089 60.92676756 82.2811889 64.97750067 82.26875496 69.02835083 C82.26423279 70.97404466 82.26391032 72.91975285 82.26782036 74.865448 C82.27072486 77.58296321 82.25426233 80.29967593 82.23242188 83.01708984 C82.23692352 83.82445587 82.24142517 84.6318219 82.24606323 85.46365356 C82.17367808 90.87344119 82.17367808 90.87344119 80.46327209 93.4230957 C78.82836914 94.38818359 78.82836914 94.38818359 76.26586914 94.20068359 C73.82836914 93.38818359 73.82836914 93.38818359 71.82836914 91.38818359 C71.6404871 88.7981005 71.57649148 86.31587426 71.60131836 83.72558594 C71.60102631 82.93525467 71.60073425 82.1449234 71.60043335 81.3306427 C71.60182952 78.71169146 71.61740409 76.09302279 71.63305664 73.47412109 C71.63678575 71.66094112 71.6396332 69.84775913 71.64163208 68.03457642 C71.64927657 63.25710508 71.66893202 58.47975492 71.69104004 53.70233154 C71.71148094 48.82940307 71.72063003 43.95645506 71.73071289 39.08349609 C71.75217717 29.51833862 71.78632291 19.95327118 71.82836914 10.38818359 C70.31286972 10.39484543 70.31286972 10.39484543 68.76675415 10.40164185 C59.26076174 10.44212679 49.75478675 10.47213853 40.2487278 10.49180794 C35.36117596 10.50225999 30.47369353 10.51644504 25.58618164 10.5390625 C20.87240285 10.56074031 16.15869096 10.5727415 11.44486618 10.57793808 C9.6434664 10.58164296 7.84207042 10.58887734 6.04069901 10.59964371 C3.52404013 10.61409146 1.00766025 10.61616438 -1.5090332 10.61523438 C-2.25925247 10.62242493 -3.00947174 10.62961548 -3.78242493 10.63702393 C-8.94352654 10.61628792 -8.94352654 10.61628792 -11.17163086 8.38818359 C-11.51445905 5.71412368 -11.59623645 4.07673146 -10.16282654 1.75228882 C-7.02137908 -0.39981754 -3.67712274 -0.02837025 0 0 Z " fill="#070708" transform="translate(374.171630859375,131.61181640625)"/>
<path d="M0 0 C5.31173928 3.13463172 9.756662 7.12154851 11.74609375 13.08984375 C12.47821118 19.84692761 11.95972662 25.57782401 7.74609375 31.08984375 C2.22843644 36.13097611 -2.90643274 37.580658 -10.328125 37.4921875 C-16.02553039 36.70869918 -20.17000081 33.72570252 -23.69921875 29.26171875 C-26.666628 24.15694479 -27.17990326 18.8726006 -26.25390625 13.08984375 C-24.17716078 7.0696153 -19.7397157 3.13523607 -14.36328125 -0.01953125 C-9.7997285 -1.94636463 -4.57674026 -1.84814641 0 0 Z " fill="#FBFBFB" transform="translate(263.25390625,300.91015625)"/>
</svg>
